<svg xmlns="http://www.w3.org/2000/svg" version="1.1" xmlns:xlink="http://www.w3.org/1999/xlink" xmlns:svgjs="http://svgjs.dev/svgjs" width="1000" height="1000" viewBox="0 0 1000 1000"><rect width="1000" height="1000" fill="#000000"></rect><g transform="matrix(0.7,0,0,0.7,149.57575757575756,282.1265587044535)"><svg viewBox="0 0 396 247" data-background-color="#ffffff" preserveAspectRatio="xMidYMid meet" height="623" width="1000" xmlns="http://www.w3.org/2000/svg" xmlns:xlink="http://www.w3.org/1999/xlink"><defs></defs><g id="tight-bounds" transform="matrix(1,0,0,1,0.2400000000000091,-0.09999999999999432)"><svg viewBox="0 0 395.52 247.2" height="247.2" width="395.52"><g><svg></svg></g><g><svg viewBox="0 0 395.52 247.2" height="247.2" width="395.52"><g transform="matrix(3.400266275519834, 0, 0, 3.400266275519834, 107.0153872865712, 1)"><svg xmlns="http://www.w3.org/2000/svg" xmlns:xlink="http://www.w3.org/1999/xlink" version="1.1" x="0" y="0" viewBox="23.312999725341797 13.944000244140625 53.375003814697266 72.11199951171875" enable-background="new 0 0 100 100" xml:space="preserve" height="72.11199951171875" width="53.375003814697266" class="icon-none" data-fill-palette-color="accent" id="none"><g fill="#87c0cd" data-fill-palette-color="accent"><path d="M64.71 25.543C63.864 19.025 57.595 13.944 50 13.944c-7.594 0-13.864 5.081-14.709 11.599H23.313v60.513h53.375V25.543H64.71zM50 16.944c6.515 0 11.814 4.53 11.814 10.099S56.515 37.142 50 37.142s-11.814-4.53-11.814-10.099S43.485 16.944 50 16.944zM26.313 28.543h8.979c0.789 6.083 6.302 10.915 13.209 11.531v42.981H26.313V28.543zM73.688 83.056H51.5V40.074c6.907-0.617 12.421-5.448 13.21-11.531h8.978V83.056z" fill="#ffffff" data-fill-palette-color="accent"></path><rect x="55.696" y="49.015" width="14.55" height="3" fill="#ffffff" data-fill-palette-color="accent"></rect></g></svg></g><rect width="232.0384" height="67.64648731517914" fill="#ffffff" y="89.77675634241042" x="81.7408" data-fill-palette-color="quaternary"></rect><g transform="matrix(1,0,0,1,92.288,100.62462540716612)"><svg viewBox="0 0 210.944 45.950749185667746" height="45.950749185667746" width="210.944"><g><svg viewBox="0 0 210.944 45.950749185667746" height="45.950749185667746" width="210.944"><g><svg viewBox="0 0 210.944 45.950749185667746" height="45.950749185667746" width="210.944"><g><svg viewBox="0 0 210.944 45.950749185667746" height="45.950749185667746" width="210.944"><g><svg viewBox="0 0 210.944 45.950749185667746" height="45.950749185667746" width="210.944"><g><svg viewBox="0 0 210.944 45.950749185667746" height="45.950749185667746" width="210.944"><g transform="matrix(1,0,0,1,0,0)"><svg width="210.944" viewBox="-0.05000000447034836 -40.29999923706055 245.58999633789062 53.5" height="45.950749185667746" data-palette-color="#113f67"><path d="M46.1-3.25L44.45 0 25.85 0 25.85-2.8 31.3-6.05 28.25-13.5 12.8-13.5 10.05-6.8 17.7-3.25 16.1 0-0.05 0-0.05-2.8 5.35-6.85 18.15-37.7 26.8-40.25 41-5.8 46.1-3.25ZM26.7-17.35L20.6-32.35 14.4-17.35 26.7-17.35ZM99.35 9.5Q89.9 13.2 86.4 13.2L86.4 13.2Q84.7 13.2 81.12 9.53 77.55 5.85 72.85 0.3L72.85 0.3Q70.3 1 68.05 1L68.05 1Q62.3 1 57.92-1.53 53.55-4.05 51.12-8.55 48.7-13.05 48.7-18.75L48.7-18.75Q48.7-24.6 52.32-29.58 55.95-34.55 61.35-37.43 66.75-40.3 71.6-40.3L71.6-40.3Q77.35-40.3 81.75-37.75 86.15-35.2 88.55-30.7 90.95-26.2 90.95-20.5L90.95-20.5Q90.95-14.7 87.4-9.8 83.85-4.9 78.45-1.95L78.45-1.95Q82.8 1.2 86.5 3.6 90.2 6 90.95 6L90.95 6 97.7 6 99.35 9.5ZM58.55-21.15Q58.55-16.65 59.92-12.93 61.3-9.2 64.07-6.98 66.85-4.75 70.95-4.75L70.95-4.75Q73.7-4.75 76.02-6.5 78.35-8.25 79.7-11.3 81.05-14.35 81.05-18.15L81.05-18.15Q81.05-22.7 79.7-26.4 78.35-30.1 75.57-32.33 72.8-34.55 68.7-34.55L68.7-34.55Q65.9-34.55 63.57-32.8 61.25-31.05 59.9-28 58.55-24.95 58.55-21.15L58.55-21.15ZM137.85-36.5L133.1-32.8 133.1-15.5Q133.1-10.25 130.47-6.5 127.85-2.75 123.97-0.88 120.1 1 116.45 1L116.45 1Q111.65 1 107.82-0.98 104-2.95 101.87-6.43 99.75-9.9 99.75-14.25L99.75-14.25 99.75-34.6 94.25-36.05 95.85-39.3 113.55-39.3 113.55-36.5 108.8-32.8 108.8-16.05Q108.8-10.7 111.55-7.73 114.3-4.75 119.85-4.75L119.85-4.75Q121.95-4.75 124-6.03 126.05-7.3 127.4-9.75 128.75-12.2 128.75-15.55L128.75-15.55 128.75-33.8 122.95-36.05 124.55-39.3 137.85-39.3 137.85-36.5ZM160.39-3.3L158.79-0.05 141.09-0.05 141.09-2.85 145.79-6.8 145.79-34.5 140.24-36.1 141.89-39.35 159.59-39.35 159.59-36.55 154.84-32.55 154.84-4.85 160.39-3.3ZM186.09-39.8Q191.69-39.8 196.02-37.33 200.34-34.85 202.72-30.45 205.09-26.05 205.09-20.5L205.09-20.5Q205.09-14.8 201.52-9.98 197.94-5.15 192.64-2.33 187.34 0.5 182.54 0.5L182.54 0.5Q180.24 0.5 177.99 0.25L177.99 0.25Q174.24 0 172.24 0L172.24 0 164.34 0 164.34-2.8 169.04-6.5 169.04-34.35 163.49-36.05 165.14-39.3 172.19-39.3Q176.79-39.3 181.19-39.6L181.19-39.6Q184.59-39.8 186.09-39.8L186.09-39.8ZM183.99-4.15Q187.14-4.15 189.72-5.95 192.29-7.75 193.77-10.95 195.24-14.15 195.24-18.15L195.24-18.15Q195.24-22.95 193.82-26.83 192.39-30.7 189.47-33.02 186.54-35.35 182.24-35.35L182.24-35.35Q179.99-35.35 178.09-34.15L178.09-34.15 178.09-5.1Q180.64-4.15 183.94-4.15L183.94-4.15 183.99-4.15ZM245.54 0.95L241.94 0.05 210.34 0.05 210.34-2.75 215.04-6.45 215.04-34.4 209.49-36.05 211.14-39.3 241.44-39.3 245.04-40.2 245.04-27.45 242.29-26.35 236.14-35.5 224.09-35.5 224.09-22 230.04-22 233.69-27.6 236.49-27.6 236.49-13.05 233.24-11.4 229.99-18.15 224.09-18.15 224.09-3.8 235.74-3.8 242.79-14 245.54-12.85 245.54 0.95Z" opacity="1" transform="matrix(1,0,0,1,0,0)" fill="#ffffff" class="undefined-text-0" data-fill-palette-color="primary" id="text-0"></path></svg></g></svg></g></svg></g></svg></g><g></g></svg></g></svg></g></svg></g></svg></g></svg><rect width="395.52" height="247.2" fill="none" stroke="none" visibility="hidden"></rect></g></svg></g></svg>